<svg width="58" height="58" viewBox="0 0 58 58" fill="none" xmlns="http://www.w3.org/2000/svg">
<path d="M0 11C0 4.92487 4.92487 0 11 0H47C53.0751 0 58 4.92487 58 11V47C58 53.0751 53.0751 58 47 58H11C4.92487 58 0 53.0751 0 47V11Z" fill="#61617C"/>
<path d="M39.7605 18.3833H35.6288V15.6288C35.6263 13.3479 33.7779 11.4996 31.4971 11.4971H25.9881C23.7072 11.4996 21.8589 13.3479 21.8564 15.6288V18.3833H17.7246C14.6835 18.3868 12.2191 20.8512 12.2156 23.8923V39.042C12.2191 42.0831 14.6835 44.5475 17.7246 44.551H39.7605C42.8016 44.5475 45.266 42.0831 45.2695 39.042V23.8923C45.266 20.8512 42.8016 18.3868 39.7605 18.3833ZM24.6109 15.6288C24.6119 14.8686 25.2279 14.2526 25.9881 14.2516H31.4971C32.2573 14.2526 32.8733 14.8686 32.8743 15.6288V18.3833H24.6109V15.6288ZM34.2516 26.6468H23.2336C22.473 26.6468 21.8564 26.0302 21.8564 25.2695C21.8564 24.5089 22.473 23.8923 23.2336 23.8923H34.2516C35.0123 23.8923 35.6289 24.5089 35.6289 25.2695C35.6288 26.0301 35.0122 26.6468 34.2516 26.6468Z" fill="white"/>
</svg>
