<svg width="59" height="58" viewBox="0 0 59 58" fill="none" xmlns="http://www.w3.org/2000/svg">
<path d="M0.5 11C0.5 4.92487 5.42487 0 11.5 0H47.5C53.5751 0 58.5 4.92487 58.5 11V47C58.5 53.0751 53.5751 58 47.5 58H11.5C5.42487 58 0.5 53.0751 0.5 47V11Z" fill="#61617C"/>
<path d="M37.8671 23.2104C39.376 23.2254 41.4727 23.2254 43.2676 23.2254C44.173 23.2254 44.6495 22.2144 44.0142 21.6108C41.7269 19.4228 37.6288 15.4844 35.278 13.2511C34.6267 12.6324 33.499 13.0549 33.499 13.915V19.1814C33.499 21.3845 35.4686 23.2104 37.8671 23.2104Z" fill="white"/>
<path d="M42.7439 25.2928H38.1535C34.3889 25.2928 31.3233 22.3804 31.3233 18.8041V14.4432C31.3233 13.6132 30.6085 12.9342 29.7349 12.9342H23.0001C18.1078 12.9342 14.1527 15.9522 14.1527 21.3392V34.7088C14.1527 40.0959 18.1078 43.1138 23.0001 43.1138H35.4849C40.3772 43.1138 44.3323 40.0959 44.3323 34.7088V26.8017C44.3323 25.9718 43.6176 25.2928 42.7439 25.2928Z" fill="white"/>
</svg>
