<svg width="59" height="58" viewBox="0 0 59 58" fill="none" xmlns="http://www.w3.org/2000/svg">
<path d="M0.25 11C0.25 4.92487 5.17487 0 11.25 0H47.25C53.3251 0 58.25 4.92487 58.25 11V47C58.25 53.0751 53.3251 58 47.25 58H11.25C5.17487 58 0.25 53.0751 0.25 47V11Z" fill="#61617C"/>
<path d="M35.8607 37.5972C35.4791 37.596 35.1064 37.4818 34.7891 37.2687C34.4718 37.0557 34.2241 36.7533 34.0768 36.3994C33.9296 36.0456 33.8895 35.6559 33.9614 35.2792C34.0333 34.9025 34.2141 34.5555 34.4812 34.2816C35.9363 32.8116 36.7532 30.8222 36.7532 28.7484C36.7532 26.6746 35.9363 24.6852 34.4812 23.2152C34.1293 22.8454 33.9361 22.3515 33.9431 21.8398C33.9502 21.3281 34.157 20.8397 34.519 20.4799C34.8809 20.1202 35.3691 19.9178 35.8781 19.9165C36.3871 19.9152 36.8763 20.115 37.2401 20.4729C39.4137 22.6729 40.6335 25.6477 40.6335 28.7484C40.6335 31.8491 39.4137 34.8239 37.2401 37.0238C37.0592 37.2062 36.8442 37.3508 36.6074 37.4492C36.3707 37.5477 36.1169 37.598 35.8607 37.5972ZM23.4884 37.0336C23.8542 36.6699 24.0613 36.1751 24.0642 35.6579C24.0671 35.1407 23.8656 34.6436 23.5039 34.2758C22.0488 32.8058 21.2319 30.8163 21.2319 28.7425C21.2319 26.6687 22.0488 24.6793 23.5039 23.2093C23.6879 23.0283 23.8343 22.8122 23.9344 22.5738C24.0345 22.3353 24.0864 22.0792 24.087 21.8204C24.0877 21.5616 24.0371 21.3052 23.9382 21.0663C23.8393 20.8273 23.6941 20.6105 23.511 20.4285C23.3279 20.2465 23.1106 20.103 22.8718 20.0063C22.633 19.9096 22.3774 19.8616 22.12 19.8652C21.8625 19.8688 21.6084 19.9239 21.3723 20.0272C21.1363 20.1305 20.923 20.2801 20.7451 20.4671C18.5715 22.667 17.3516 25.6419 17.3516 28.7425C17.3516 31.8432 18.5715 34.818 20.7451 37.018C21.1068 37.3857 21.5991 37.5939 22.1135 37.5968C22.628 37.5998 23.1225 37.3972 23.4884 37.0336ZM43.4117 41.7535C46.6184 38.1867 48.3938 33.5502 48.3938 28.7425C48.3938 23.9349 46.6184 19.2984 43.4117 15.7316C43.0664 15.348 42.5837 15.1181 42.0698 15.0923C41.5558 15.0665 41.0528 15.247 40.6712 15.5941C40.2897 15.9412 40.0609 16.4264 40.0353 16.9431C40.0096 17.4597 40.1892 17.9654 40.5344 18.349C43.0955 21.1985 44.5133 24.9022 44.5133 28.7425C44.5133 32.5829 43.0955 36.2866 40.5344 39.1361C40.1892 39.5196 40.0096 40.0254 40.0353 40.542C40.0609 41.0587 40.2897 41.5439 40.6712 41.891C41.0528 42.2381 41.5558 42.4186 42.0698 42.3928C42.5837 42.367 43.0664 42.137 43.4117 41.7535ZM17.313 41.89C17.6944 41.5431 17.9231 41.0581 17.9489 40.5417C17.9748 40.0253 17.7956 39.5197 17.4507 39.1361C14.8897 36.2866 13.4718 32.5829 13.4718 28.7425C13.4718 24.9022 14.8897 21.1985 17.4507 18.349C17.6217 18.1591 17.7537 17.9372 17.8394 17.6959C17.925 17.4547 17.9626 17.1989 17.9499 16.9431C17.9372 16.6872 17.8745 16.4364 17.7654 16.205C17.6562 15.9735 17.5028 15.7659 17.3139 15.5941C17.125 15.4222 16.9043 15.2894 16.6643 15.2033C16.4243 15.1172 16.1698 15.0795 15.9154 15.0923C15.4014 15.1181 14.9187 15.348 14.5735 15.7316C11.3668 19.2984 9.59137 23.9349 9.59137 28.7425C9.59137 33.5502 11.3668 38.1867 14.5735 41.7535C14.9188 42.1366 15.4014 42.3662 15.9151 42.3918C16.4288 42.4174 16.9316 42.2369 17.313 41.89ZM28.9926 25.817C28.417 25.817 27.8543 25.9886 27.3757 26.31C26.8972 26.6315 26.5242 27.0884 26.3039 27.623C26.0836 28.1575 26.026 28.7458 26.1383 29.3133C26.2506 29.8808 26.5277 30.4021 26.9347 30.8112C27.3417 31.2204 27.8603 31.499 28.4248 31.6119C28.9893 31.7248 29.5745 31.6668 30.1063 31.4454C30.638 31.224 31.0925 30.849 31.4123 30.3679C31.7321 29.8868 31.9028 29.3212 31.9028 28.7425C31.9028 27.9666 31.5962 27.2225 31.0504 26.6739C30.5046 26.1252 29.7644 25.817 28.9926 25.817Z" fill="white"/>
</svg>
