<svg width="59" height="58" viewBox="0 0 59 58" fill="none" xmlns="http://www.w3.org/2000/svg">
<path d="M0.5 11C0.5 4.92487 5.42487 0 11.5 0H47.5C53.5751 0 58.5 4.92487 58.5 11V47C58.5 53.0751 53.5751 58 47.5 58H11.5C5.42487 58 0.5 53.0751 0.5 47V11Z" fill="#00B3FF"/>
<path d="M11.1037 26.4335L41.6916 15.6284C43.1113 15.1585 44.3512 15.9457 43.8912 17.9125L43.8938 17.91L38.6857 40.3898C38.2997 41.9835 37.266 42.3711 35.8199 41.6202L27.8887 36.2649L24.0632 39.6413C23.6402 40.0289 23.2833 40.3559 22.4638 40.3559L23.0269 32.9611L37.726 20.7948C38.3658 20.2789 37.5832 19.9882 36.7399 20.5017L18.5748 30.9798L10.7441 28.7418C9.04421 28.2477 9.0072 27.1844 11.1037 26.4335Z" fill="white"/>
</svg>
