<svg width="59" height="58" viewBox="0 0 59 58" fill="none" xmlns="http://www.w3.org/2000/svg">
<path d="M0.75 11C0.75 4.92487 5.67487 0 11.75 0H47.75C53.8251 0 58.75 4.92487 58.75 11V47C58.75 53.0751 53.8251 58 47.75 58H11.75C5.67487 58 0.75 53.0751 0.75 47V11Z" fill="#61617C"/>
<path d="M29.4925 27.6574C34.6209 27.6574 38.7786 23.7181 38.7786 18.8587C38.7786 13.9993 34.6209 10.0599 29.4925 10.0599C24.3639 10.0599 20.2064 13.9993 20.2064 18.8587C20.2064 23.7181 24.3639 27.6574 29.4925 27.6574Z" fill="white"/>
<path d="M34.3289 31.3236H24.656C19.0457 31.3236 14.4026 35.7232 14.4026 41.039C14.4026 42.3222 14.983 43.4221 16.1438 43.972C17.8849 44.8885 21.7541 45.9881 29.4925 45.9881C37.2309 45.9881 41.0999 44.8885 42.8411 43.972C43.8084 43.4221 44.5823 42.3222 44.5823 41.039C44.5823 35.5398 39.9393 31.3236 34.3289 31.3236Z" fill="white"/>
</svg>
