<svg width="58" height="58" viewBox="0 0 58 58" fill="none" xmlns="http://www.w3.org/2000/svg">
<path d="M0 11C0 4.92487 4.92487 0 11 0H47C53.0751 0 58 4.92487 58 11V47C58 53.0751 53.0751 58 47 58H11C4.92487 58 0 53.0751 0 47V11Z" fill="#FF0000"/>
<path d="M46.2057 20.042C46.0171 18.443 44.5345 16.9098 42.9833 16.7043C33.5242 15.5098 23.959 15.5098 14.503 16.7043C12.9505 16.9093 11.4679 18.443 11.2793 20.042C10.6115 25.9022 10.6115 31.5842 11.2793 37.4431C11.4679 39.0421 12.9505 40.5768 14.503 40.7807C23.959 41.9753 33.5245 41.9753 42.9833 40.7807C44.5345 40.5771 46.0171 39.0421 46.2057 37.4431C46.8736 31.5848 46.8736 25.9022 46.2057 20.042ZM25.7483 34.8298V22.6572L34.7305 28.7437L25.7483 34.8298Z" fill="white"/>
</svg>
