<svg width="32" height="32" viewBox="0 0 32 32" fill="none" xmlns="http://www.w3.org/2000/svg">
<rect width="32" height="32" rx="16" fill="#38384B"/>
<path d="M20.5724 13.448C21.3724 13.456 22.484 13.456 23.4355 13.456C23.9155 13.456 24.1682 12.92 23.8313 12.6C22.6187 11.44 20.4461 9.35199 19.1997 8.16799C18.8545 7.83999 18.2566 8.06399 18.2566 8.51999V11.312C18.2566 12.48 19.3008 13.448 20.5724 13.448Z" fill="#7A7A99"/>
<path d="M23.1579 14.552H20.7242C18.7284 14.552 17.1032 13.008 17.1032 11.112V8.8C17.1032 8.36 16.7242 8 16.2611 8H12.6905C10.0968 8 8 9.6 8 12.456V19.544C8 22.4 10.0968 24 12.6905 24H19.3095C21.9032 24 24 22.4 24 19.544V15.352C24 14.912 23.6211 14.552 23.1579 14.552Z" fill="#7A7A99"/>
</svg>
