<svg width="32" height="32" viewBox="0 0 32 32" fill="none" xmlns="http://www.w3.org/2000/svg">
<rect width="32" height="32" rx="16" fill="#38384B"/>
<path d="M25.2165 14.3423C24.7835 11.2772 22.1866 9 19.1241 9H12.8754C9.81339 9 7.21696 11.2772 6.78348 14.3423C6.73438 14.6914 6 19.7629 6 20.116C6 21.7085 7.27723 23 8.85223 23C9.93304 23 10.9201 22.3827 11.4036 21.4053L13.1429 18.1H18.8571L20.5964 21.4053C21.0795 22.3827 22.067 23 23.1478 23C24.7228 23 26 21.7085 26 20.116C26 19.7634 25.2656 14.6919 25.2165 14.3423ZM20.2857 11.1C20.8116 11.1 21.2379 11.5178 21.2379 12.0332C21.2379 12.5486 20.8116 12.9664 20.2857 12.9664C19.7598 12.9664 19.3335 12.5486 19.3335 12.0332C19.3335 11.5178 19.7598 11.1 20.2857 11.1ZM13.8571 14.6H12.4286V16H11V14.6H9.57143V13.2H11V11.8H12.4286V13.2H13.8571V14.6ZM18.3808 14.8332C17.8549 14.8332 17.4286 14.4154 17.4286 13.9C17.4286 13.3846 17.8549 12.9668 18.3808 12.9668C18.9067 12.9668 19.333 13.3846 19.333 13.9C19.3339 14.4154 18.9071 14.8332 18.3808 14.8332ZM20.2857 16.7C19.7598 16.7 19.3335 16.2822 19.3335 15.7668C19.3335 15.2514 19.7598 14.8336 20.2857 14.8336C20.8116 14.8336 21.2379 15.2514 21.2379 15.7668C21.2379 16.2822 20.8116 16.7 20.2857 16.7ZM22.1906 14.8332C21.6647 14.8332 21.2384 14.4154 21.2384 13.9C21.2384 13.3846 21.6647 12.9668 22.1906 12.9668C22.7165 12.9668 23.1429 13.3846 23.1429 13.9C23.1429 14.4154 22.7165 14.8332 22.1906 14.8332Z" fill="#7A7A99"/>
</svg>
