<svg width="24" height="17" viewBox="0 0 24 17" fill="none" xmlns="http://www.w3.org/2000/svg">
<path d="M21.9166 17H2.08334C1.30091 17 0.666672 16.3657 0.666672 15.5833C0.666672 14.8009 1.30091 14.1667 2.08334 14.1667H21.9167C22.6991 14.1667 23.3333 14.8009 23.3333 15.5833C23.3333 16.3657 22.699 17 21.9166 17Z" fill="white"/>
<path d="M21.9166 9.91665H2.08334C1.30091 9.91665 0.666672 9.28241 0.666672 8.50002C0.666672 7.71764 1.30091 7.08335 2.08334 7.08335H21.9167C22.6991 7.08335 23.3333 7.71759 23.3333 8.50002C23.3333 9.28246 22.699 9.91665 21.9166 9.91665Z" fill="white"/>
<path d="M21.9166 2.83334H2.08334C1.30091 2.83334 0.666672 2.1991 0.666672 1.41667C0.666672 0.634238 1.30091 0 2.08334 0H21.9167C22.6991 0 23.3333 0.634238 23.3333 1.41667C23.3333 2.1991 22.699 2.83334 21.9166 2.83334Z" fill="white"/>
</svg>
