<svg width="32" height="32" viewBox="0 0 32 32" fill="none" xmlns="http://www.w3.org/2000/svg">
<path d="M16 32C24.8356 32 32 24.8356 32 16C32 7.16438 24.8356 0 16 0C7.16438 0 6.61611e-06 7.16438 6.61611e-06 16C6.61611e-06 24.8356 7.16438 32 16 32Z" fill="#F0F0F0"/>
<path d="M31.0044 21.5625C32.3319 17.9717 32.3319 14.0246 31.0044 10.4338H0.995631C-0.331877 14.0246 -0.331877 17.9717 0.995631 21.5625L16 22.9606L31.0044 21.5625Z" fill="#0052B4"/>
<path d="M16 32C22.88 32 28.7462 27.6625 31.0044 21.5625H0.995631C3.25626 27.6625 9.12 32 16 32Z" fill="#D80027"/>
</svg>
