<svg width="32" height="32" viewBox="0 0 32 32" fill="none" xmlns="http://www.w3.org/2000/svg">
<rect width="32" height="32" rx="16" fill="#38384B"/>
<path fill-rule="evenodd" clip-rule="evenodd" d="M19.7266 7H12.2734C9.3625 7 7 9.3625 7 12.2734V19.7266C7 22.6375 9.3625 25 12.2734 25H19.7266C22.6375 25 25 22.6375 25 19.7266V12.2734C25 9.3625 22.6375 7 19.7266 7ZM13.75 18.102V17.125H18.25V18.102C18.25 18.572 18.8181 18.8072 19.1504 18.475L21.2523 16.373C21.4584 16.1673 21.4584 15.8334 21.2523 15.6273L19.1504 13.5254C18.8181 13.1931 18.25 13.4287 18.25 13.8984V14.8754H13.75V13.8984C13.75 13.4283 13.1819 13.1931 12.8496 13.5254L10.7477 15.6273C10.5416 15.833 10.5416 16.167 10.7477 16.373L12.8496 18.475C13.1819 18.8072 13.75 18.5717 13.75 18.102Z" fill="#7A7A99"/>
</svg>
