<svg width="160" height="100" viewBox="0 0 160 100" fill="none" xmlns="http://www.w3.org/2000/svg">
<path d="M84.1318 45.2135L63.5153 70.4021" stroke="#F7533D" stroke-width="1.27183" stroke-linecap="round"/>
<path d="M108.246 31.9507L82.8573 53.1223" stroke="#F7533D" stroke-width="1.27183" stroke-linecap="round"/>
<path d="M4.43231 28.0808L29.599 51.6003" stroke="#F7533D" stroke-width="1.27183" stroke-linecap="round"/>
<path d="M104.342 53.317V57.1652C104.342 59.51 103.77 61.4059 102.625 62.8529C101.508 64.2681 99.8449 65.1474 97.637 65.4908C95.4292 65.8343 93.7528 65.4744 92.608 64.4111C91.4904 63.316 90.9316 61.5961 90.9316 59.2513V44.1896C90.9316 41.8449 91.4904 39.9649 92.608 38.5497C93.7528 37.1027 95.4292 36.2074 97.637 35.864C99.8449 35.5205 101.508 35.8964 102.625 36.9914C103.77 38.0547 104.342 39.7587 104.342 42.1035V44.9172L100.09 45.5787V42.4753C100.09 41.4271 99.8722 40.73 99.436 40.384C99.0272 40.0062 98.4684 39.8725 97.7597 39.9827C97.051 40.093 96.4786 40.4027 96.0425 40.9119C95.6336 41.3893 95.4292 42.1521 95.4292 43.2004V58.8414C95.4292 59.8896 95.6336 60.5888 96.0425 60.939C96.4786 61.2849 97.051 61.4028 97.7597 61.2925C98.4684 61.1823 99.0272 60.8885 99.436 60.4111C99.8722 59.9295 100.09 59.1645 100.09 58.1163V53.9785L104.342 53.317Z" fill="white"/>
<path d="M107.071 34.7275L111.569 34.0278V58.8548L118.969 57.7036V61.8415L107.071 63.6923V34.7275Z" fill="white"/>
<path d="M120.926 32.5722L125.424 31.8726V60.8374L120.926 61.537V32.5722Z" fill="white"/>
<path d="M141.755 47.4972V51.3454C141.755 53.6902 141.183 55.5861 140.038 57.0331C138.92 58.4483 137.258 59.3276 135.05 59.6711C132.842 60.0145 131.166 59.6546 130.021 58.5913C128.903 57.4962 128.344 55.7763 128.344 53.4315V38.3699C128.344 36.0251 128.903 34.1451 130.021 32.7299C131.166 31.2829 132.842 30.3877 135.05 30.0442C137.258 29.7008 138.92 30.0766 140.038 31.1717C141.183 32.2349 141.755 33.939 141.755 36.2837V39.0975L137.503 39.7589V36.6555C137.503 35.6073 137.285 34.9102 136.849 34.5642C136.44 34.1865 135.881 34.0527 135.172 34.163C134.464 34.2732 133.891 34.5829 133.455 35.0921C133.046 35.5695 132.842 36.3323 132.842 37.3806V53.0216C132.842 54.0698 133.046 54.769 133.455 55.1192C133.891 55.4652 134.464 55.583 135.172 55.4728C135.881 55.3625 136.44 55.0687 136.849 54.5913C137.285 54.1097 137.503 53.3448 137.503 52.2965V48.1587L141.755 47.4972Z" fill="white"/>
<path d="M150.372 45.4121L148.982 48.2765V57.1729L144.484 57.8725V28.9077L148.982 28.2081V40.8284L154.869 27.2922L159.367 26.5926L153.111 40.4757L159.367 55.5574L154.747 56.2761L150.372 45.4121Z" fill="white"/>
<path d="M95.5927 69.9379V92.2821C95.5927 93.3304 95.7971 94.0296 96.206 94.3798C96.6421 94.7257 97.2145 94.8436 97.9232 94.7333C98.6319 94.6231 99.1907 94.3293 99.5996 93.8519C100.036 93.3703 100.254 92.6053 100.254 91.5571V69.2128L104.506 68.5514V90.606C104.506 92.9507 103.934 94.8466 102.789 96.2937C101.671 97.7088 100.008 98.5882 97.8006 98.9316C95.5927 99.2751 93.9164 98.9152 92.7715 97.8519C91.654 96.7568 91.0952 95.0369 91.0952 92.6921V70.6375L95.5927 69.9379Z" fill="url(#paint0_linear_521_4307)"/>
<path d="M114.858 66.895C117.12 66.5431 118.153 67.0354 119.243 68.0796C120.361 69.1195 120.919 70.8118 120.919 73.1566V76.922C120.919 79.2668 120.361 81.133 119.243 82.5206C118.153 83.904 116.476 84.7716 114.214 85.1235L112.088 85.4543V96.3367L107.59 97.0364V68.0716L114.858 66.895ZM112.088 71.5098V81.3164L114.214 80.9857C114.923 80.8755 115.468 80.5976 115.849 80.152C116.231 79.7064 116.422 78.9595 116.422 77.9113V73.5666C116.422 72.5183 116.231 71.8308 115.849 71.5039C115.468 71.1771 114.923 71.0688 114.214 71.179L112.088 71.5098Z" fill="url(#paint1_linear_521_4307)"/>
<path d="M108.246 31.9507L97.2704 41.1034" stroke="#F7533D" stroke-width="1.27183" stroke-linecap="round"/>
<path fill-rule="evenodd" clip-rule="evenodd" d="M46.5754 79.689L22.9672 92.0098L60.7245 99.9587L84.7302 87.4789L46.5754 79.689Z" fill="url(#paint2_linear_521_4307)"/>
<path d="M48.8011 40.5008L45.4626 39.6265L39.2624 45.5086L41.5676 46.9924L48.0857 40.8585L48.8011 40.5008Z" fill="#F4402A"/>
<path d="M34.949 46.7805L38.7855 43.1407L36.4008 44.3958L22.9672 56.6371L24.1595 56.0189L25.4313 55.3594L41.5676 46.9924L39.2624 45.5086L45.4626 39.6265L42.5215 41.1744L38.7855 44.7188L34.949 46.7805Z" fill="#FF7561"/>
<path d="M38.7855 43.1407L34.949 46.7805L38.7855 44.7188L42.5215 41.1744L38.7855 43.1407Z" fill="#F4402A"/>
<path d="M52.7756 38.5136L48.8011 40.5008L48.0857 40.8585L41.5676 46.9924L25.4313 55.3594L24.1595 56.0189L22.9672 56.6371V92.0098L46.5754 79.689V48.9267V44.3958L52.7756 38.5136Z" fill="url(#paint3_linear_521_4307)"/>
<path d="M68.6734 68.481L65.7323 67.9246V76.9863L68.4349 77.7017L68.5908 71.6727L68.6734 68.481Z" fill="#FFC2B9"/>
<path d="M64.3015 77.7017L67.0836 78.3376L68.4349 77.7017L65.7323 76.9863L64.3015 77.7017Z" fill="#F4402A"/>
<path d="M64.3015 77.7017L65.7323 76.9863V67.9246L64.3015 71.3426V77.7017Z" fill="#F4402A"/>
<path d="M60.168 65.5399L62.7912 66.1758L64.5399 64.904L60.9629 65.1425L60.168 65.5399Z" fill="#FF7561"/>
<path d="M70.5016 67.9246L72.1709 67.2092L70.5016 66.2553V67.9246Z" fill="#FF7561"/>
<path d="M60.9629 53.7755L60.168 54.4114V59.3833V65.5399L60.9629 65.1425V58.8666V53.7755Z" fill="#FF7561"/>
<path d="M64.5399 44.8727L62.7912 43.9189V53.7755H64.5399V44.8727Z" fill="#FF7561"/>
<path fill-rule="evenodd" clip-rule="evenodd" d="M52.7756 38.5136L46.5754 44.3958V48.9267V79.689L84.7302 87.4789V56.6371V51.9473L78.371 43.7599L52.7756 38.5136ZM60.9629 53.7755H62.7912V43.9189L68.5144 45.0317L70.5811 46.0651V54.9679L72.1709 56.3192V61.023V67.2092L70.5016 67.9246V68.8269L68.5908 71.6727L68.4349 77.7017L67.0836 78.3376L64.3015 77.7017V71.3426L62.7912 71.0246V66.1758L60.168 65.5399V59.3833V54.4114L60.9629 53.7755Z" fill="url(#paint4_linear_521_4307)"/>
<path d="M70.5811 46.0651L68.5144 45.0317L62.7912 43.9189L64.5399 44.8727L70.5811 46.0651Z" fill="#FF7561"/>
<path fill-rule="evenodd" clip-rule="evenodd" d="M60.9629 53.7755H62.7912H64.5399V44.8727L70.5811 46.0651V54.9679L72.1709 56.3192V61.023V67.2092L70.5016 66.2553V67.9246V68.8269L68.6734 68.481L65.7323 67.9246L64.5399 67.699V64.904L60.9629 65.1425V58.8666V53.7755Z" fill="#FFC2B9"/>
<path d="M68.6734 68.481L68.5908 71.6727L70.5016 68.8269L68.6734 68.481Z" fill="#F4402A"/>
<path d="M62.7912 66.1758V71.0246L64.3015 71.3426L65.7323 67.9246L64.5399 67.699V64.904L62.7912 66.1758Z" fill="#F4402A"/>
<path d="M67.8003 56.4022L64.2233 59.4076L67.8003 63.7152L71.3773 60.6097L70.7811 59.9085L70.7805 59.9078L67.8003 56.4022Z" fill="#F5402A"/>
<path fill-rule="evenodd" clip-rule="evenodd" d="M46.5767 79.6926V48.9303L22.9684 61.2917V92.0134L46.5767 79.6926ZM25.0352 62.6737L44.4305 52.5182V78.4317L25.0352 88.5871V62.6737Z" fill="#FFBCB5"/>
<path fill-rule="evenodd" clip-rule="evenodd" d="M84.7314 87.4825L46.5767 79.6926L22.9684 92.0134L60.7258 99.9623L84.7314 87.4825ZM79.5746 88.2187L47.2398 81.6171L28.5259 91.3835L60.5799 98.1318L79.5746 88.2187Z" fill="#FF8172"/>
<path d="M69.6285 74.1283L69.6932 70.0292L68.5885 71.6713L68.5274 73.9487L69.6285 74.1283Z" fill="#FFEDEB"/>
<path d="M46.5767 79.6926L84.7314 87.4825V56.6407L70.5824 53.7815V54.9715L72.1722 56.3228V60.4562V67.2128L70.5029 67.9282V68.829L69.6932 70.0292L73.444 70.7103V56.6407L82.7442 58.5882V84.6209L48.8024 77.7848V51.5534L58.0231 53.3817V67.8487L61.8386 68.4846V72.777L64.3028 73.1891V71.3462L62.7925 71.0283V66.1794L60.1693 65.5435V59.1049V54.415L60.9642 53.7791H62.7925V52.2072L46.5767 48.9303V79.6926Z" fill="#FFEDEB"/>
<path d="M85.4534 9.5291C78.6173 4.11699 67.1288 0.1599 56.4757 0.00538047C44.5947 -0.166948 33.5132 3.80857 24.3262 10.7366L3.10266 27.0845C11.2745 21.4857 24.3262 13.0777 25.123 18.2921C34.3167 8.11501 46.6362 1.8913 60.1758 1.8913C70.1024 1.8913 80.3715 5.99348 88.2355 11.7894L85.4534 9.5291Z" fill="#A70000"/>
<path d="M94.2309 30.4243C99.0967 27.8836 104.786 27.9504 110.572 29.9365L88.2355 11.7894C80.3715 5.99348 70.1024 1.8913 60.1758 1.8913C46.6362 1.8913 34.3167 8.11501 25.123 18.2921C44.1303 16.1342 71.21 22.6141 85.9423 43.0663C86.8006 36.9862 89.6649 32.8084 94.2309 30.4243Z" fill="url(#paint5_linear_521_4307)"/>
<path d="M26.7217 20.1393L46.5457 44.3596" stroke="#F7533D" stroke-width="1.27183" stroke-linecap="round"/>
<circle cx="25.5" cy="18.5" r="2.5" fill="#0A0A0E" stroke="#F7533D" stroke-linecap="round"/>
<circle cx="25" cy="18" r="1" fill="white"/>
<circle cx="3.5" cy="27.5" r="2.5" fill="#0A0A0E" stroke="#F7533D" stroke-linecap="round"/>
<circle cx="3" cy="27" r="1" fill="white"/>
<circle cx="85.5" cy="43.5" r="2.5" fill="#0A0A0E" stroke="#F7533D" stroke-linecap="round"/>
<circle cx="85" cy="43" r="1" fill="white"/>
<circle cx="109.5" cy="29.5" r="2.5" fill="#0A0A0E" stroke="#F7533D" stroke-linecap="round"/>
<circle cx="109" cy="29" r="1" fill="white"/>
<defs>
<linearGradient id="paint0_linear_521_4307" x1="125.25" y1="94.6618" x2="115.667" y2="33.0593" gradientUnits="userSpaceOnUse">
<stop stop-color="#FF7F4D"/>
<stop offset="1" stop-color="#FF1010"/>
</linearGradient>
<linearGradient id="paint1_linear_521_4307" x1="125.25" y1="94.6618" x2="115.667" y2="33.0593" gradientUnits="userSpaceOnUse">
<stop stop-color="#FF7F4D"/>
<stop offset="1" stop-color="#FF1010"/>
</linearGradient>
<linearGradient id="paint2_linear_521_4307" x1="23.6838" y1="91.6956" x2="85.8443" y2="91.6956" gradientUnits="userSpaceOnUse">
<stop stop-color="#931000"/>
<stop offset="1" stop-color="#F4402A"/>
</linearGradient>
<linearGradient id="paint3_linear_521_4307" x1="53.9392" y1="99.9587" x2="53.9392" y2="38.5136" gradientUnits="userSpaceOnUse">
<stop stop-color="#FF7F4D"/>
<stop offset="1" stop-color="#FF1010"/>
</linearGradient>
<linearGradient id="paint4_linear_521_4307" x1="53.9392" y1="99.9587" x2="53.9392" y2="38.5136" gradientUnits="userSpaceOnUse">
<stop stop-color="#FF7F4D"/>
<stop offset="1" stop-color="#FF1010"/>
</linearGradient>
<linearGradient id="paint5_linear_521_4307" x1="33.0946" y1="7.51415" x2="80.382" y2="39.5869" gradientUnits="userSpaceOnUse">
<stop stop-color="#FF8A75"/>
<stop offset="0.0001" stop-color="#FF5536"/>
<stop offset="1" stop-color="#FF1A16"/>
</linearGradient>
</defs>
</svg>
