<svg width="32" height="32" viewBox="0 0 32 32" fill="none" xmlns="http://www.w3.org/2000/svg">
<rect width="32" height="32" rx="16" fill="#38384B"/>
<path d="M23.867 13.975C23.5616 13.6616 23.2482 13.3321 23.1277 13.0509C23.0071 12.7696 23.0152 12.3518 23.0071 11.9259C22.9991 11.1464 22.983 10.2545 22.3643 9.63571C21.7455 9.01696 20.8536 9.00089 20.0741 8.99286C19.6482 8.98482 19.2143 8.97679 18.9491 8.87232C18.6839 8.76786 18.3384 8.43839 18.025 8.13304C17.4705 7.60268 16.8357 7 16 7C15.1643 7 14.5295 7.60268 13.975 8.13304C13.6616 8.43839 13.3321 8.75179 13.0509 8.87232C12.7696 8.99286 12.3518 8.98482 11.9259 8.99286C11.1464 9.00089 10.2545 9.01696 9.63571 9.63571C9.01696 10.2545 9.00089 11.1464 8.99286 11.9259C8.98482 12.3518 8.97679 12.7857 8.87232 13.0509C8.76786 13.3161 8.43839 13.6616 8.13304 13.975C7.60268 14.5295 7 15.1643 7 16C7 16.8357 7.60268 17.4705 8.13304 18.025C8.43839 18.3384 8.75179 18.6679 8.87232 18.9491C8.99286 19.2304 8.98482 19.6482 8.99286 20.0741C9.00089 20.8536 9.01696 21.7455 9.63571 22.3643C10.2545 22.983 11.1464 22.9991 11.9259 23.0071C12.3518 23.0152 12.7857 23.0232 13.0509 23.1277C13.3161 23.2321 13.6616 23.5616 13.975 23.867C14.5295 24.3973 15.1643 25 16 25C16.8357 25 17.4705 24.3973 18.025 23.867C18.3384 23.5616 18.6679 23.2482 18.9491 23.1277C19.2304 23.0071 19.6482 23.0152 20.0741 23.0071C20.8536 22.9991 21.7455 22.983 22.3643 22.3643C22.983 21.7455 22.9991 20.8536 23.0071 20.0741C23.0152 19.6482 23.0232 19.2143 23.1277 18.9491C23.2321 18.6839 23.5616 18.3384 23.867 18.025C24.3973 17.4705 25 16.8357 25 16C25 15.1643 24.3973 14.5295 23.867 13.975ZM16 21.1429C15.8093 21.1429 15.6228 21.0863 15.4642 20.9803C15.3057 20.8744 15.1821 20.7238 15.1091 20.5476C15.0361 20.3714 15.017 20.1775 15.0542 19.9905C15.0914 19.8034 15.1833 19.6316 15.3181 19.4967C15.453 19.3619 15.6248 19.27 15.8119 19.2328C15.9989 19.1956 16.1928 19.2147 16.369 19.2877C16.5452 19.3607 16.6958 19.4843 16.8018 19.6428C16.9077 19.8014 16.9643 19.9878 16.9643 20.1786C16.9643 20.4343 16.8627 20.6796 16.6819 20.8604C16.501 21.0413 16.2557 21.1429 16 21.1429ZM16.6429 17.2134V17.2857C16.6429 17.4562 16.5751 17.6197 16.4546 17.7403C16.334 17.8608 16.1705 17.9286 16 17.9286C15.8295 17.9286 15.666 17.8608 15.5454 17.7403C15.4249 17.6197 15.3571 17.4562 15.3571 17.2857V16.6429C15.3571 16.4724 15.4249 16.3088 15.5454 16.1883C15.666 16.0678 15.8295 16 16 16C16.3179 16 16.6286 15.9058 16.8929 15.7292C17.1571 15.5526 17.3632 15.3015 17.4848 15.0079C17.6064 14.7142 17.6383 14.3911 17.5763 14.0793C17.5142 13.7675 17.3612 13.4812 17.1364 13.2564C16.9116 13.0317 16.6253 12.8786 16.3135 12.8166C16.0018 12.7546 15.6786 12.7864 15.385 12.9081C15.0913 13.0297 14.8403 13.2357 14.6637 13.5C14.4871 13.7643 14.3929 14.075 14.3929 14.3929C14.3929 14.5633 14.3251 14.7269 14.2046 14.8474C14.084 14.968 13.9205 15.0357 13.75 15.0357C13.5795 15.0357 13.416 14.968 13.2954 14.8474C13.1749 14.7269 13.1071 14.5633 13.1071 14.3929C13.1071 13.8483 13.2608 13.3148 13.5506 12.8537C13.8404 12.3926 14.2544 12.0226 14.745 11.7864C15.2357 11.5501 15.7831 11.4572 16.3243 11.5182C16.8653 11.5793 17.3783 11.7918 17.804 12.1314C18.2297 12.471 18.5509 12.9239 18.7307 13.438C18.9105 13.952 18.9415 14.5063 18.8201 15.0373C18.6989 15.5681 18.4302 16.054 18.045 16.439C17.6599 16.8239 17.1738 17.0924 16.6429 17.2134Z" fill="#7A7A99"/>
</svg>
