<svg width="32" height="32" viewBox="0 0 32 32" fill="none" xmlns="http://www.w3.org/2000/svg">
<rect width="32" height="32" rx="16" fill="#38384B"/>
<path fill-rule="evenodd" clip-rule="evenodd" d="M11.5 22.6304H10.6818C10.456 22.6304 10.2727 22.8073 10.2727 23.0253V24.6051C10.2727 24.8231 10.456 25 10.6818 25H21.3182C21.544 25 21.7273 24.8231 21.7273 24.6051V23.0253C21.7273 22.8073 21.544 22.6304 21.3182 22.6304H20.5V21.9344C20.5 21.7164 20.3167 21.5395 20.0909 21.5395H11.9091C11.6833 21.5395 11.5 21.7164 11.5 21.9344V22.6304ZM14.3649 18.8196C14.364 18.8291 14.3636 18.8386 14.3636 18.8481C14.3636 20.666 14.0036 19.2951 12.5555 20.7496H19.4445C17.9964 19.2951 17.6364 20.666 17.6364 18.8481C17.6364 18.8386 17.636 18.8291 17.6351 18.8196C18.036 18.6127 18.4194 18.3398 18.7806 18.0207C19.9387 16.9974 20.8727 15.5045 21.4515 14.4232C21.452 14.4232 21.452 14.4232 21.452 14.4228C21.9003 13.5836 22.1343 12.6527 22.1343 11.708C22.1364 10.0805 22.1364 7.39494 22.1364 7.39494C22.1364 7.17693 21.9531 7 21.7273 7H10.2727C10.0469 7 9.86364 7.17693 9.86364 7.39494V11.708C9.86364 12.6531 10.0976 13.584 10.546 14.424C10.546 14.424 10.5464 14.4244 10.5464 14.4248C11.1269 15.5049 12.0609 16.9978 13.2194 18.0207C13.5806 18.3398 13.964 18.6131 14.3649 18.8196ZM22.9545 8.18481H24.5909C24.8167 8.18481 25 8.36174 25 8.57974V11.3443C25 12.3917 24.5688 13.3964 23.8018 14.1369C23.2147 14.704 22.4669 15.0808 21.6622 15.2261C21.8545 14.9437 22.0271 14.6724 22.1785 14.4232C22.1785 14.4232 22.1789 14.4232 22.1789 14.4228C22.687 13.5836 22.9525 12.6527 22.9525 11.708C22.9537 10.6362 22.9541 9.10501 22.9545 8.18481ZM9.04545 8.18481V11.708C9.04545 12.6531 9.31054 13.584 9.81864 14.424C9.81904 14.424 9.81905 14.4244 9.81945 14.4248C9.97082 14.6732 10.1435 14.9441 10.3357 15.2257C9.53145 15.08 8.78486 14.7032 8.19823 14.1369C7.43118 13.3964 7 12.3917 7 11.3443V8.57974C7 8.36174 7.18327 8.18481 7.40909 8.18481H9.04545Z" fill="#7A7A99"/>
</svg>
