<svg width="105" height="74" viewBox="0 0 105 74" fill="none" xmlns="http://www.w3.org/2000/svg">
<g style="mix-blend-mode:luminosity" opacity="0.15">
<path d="M156.518 64.7201L142.753 27.9443C133.378 2.89698 109.04 -14 82.1095 -14H76.5239C49.7928 -14 25.4555 2.89698 16.0796 27.9443L2.31505 64.7201C-5.06594 84.5989 -2.27313 106.664 9.69604 124.158C21.8647 141.452 41.6138 151.988 62.9589 151.988C67.274 151.988 71.8452 151.478 76.2621 150.559C78.4079 150.113 80.6245 150.113 82.7703 150.559C87.1873 151.478 91.7585 151.988 96.0736 151.988C117.219 151.988 137.168 141.651 149.336 124.158C161.306 106.664 163.899 84.4001 156.518 64.7201ZM146.344 122.17C134.973 138.47 116.022 148.41 95.8741 148.41C90.513 148.41 85.152 147.622 79.791 146.243C79.741 146.23 79.6924 146.212 79.6462 146.189C79.4387 146.085 79.1926 146.086 78.9851 146.19C78.9406 146.212 78.8937 146.23 78.8456 146.242C73.6794 147.622 68.1206 148.41 62.7594 148.41C42.6113 148.41 23.8596 138.669 12.2894 122.17C0.91865 105.67 -1.87416 84.5989 5.30735 65.9128L19.0719 29.137C28.0488 5.48123 50.9897 -10.6206 76.5239 -10.6206H82.1095C107.444 -10.6206 130.585 5.28244 139.562 29.137L153.326 65.9128C160.508 84.5989 157.715 105.67 146.344 122.17ZM150.533 66.9067L136.769 30.1309C128.39 7.6679 106.447 -7.63878 82.309 -7.63878H76.7234C52.5856 -7.63878 30.6421 7.46911 22.2637 30.1309L8.29964 66.9067C1.51711 84.7977 4.11043 104.676 15.0822 120.381C26.0539 136.085 43.8082 145.428 62.9589 145.428C67.13 145.428 71.5403 144.951 75.8194 143.997C78.2524 143.455 80.7798 143.455 83.2119 144.002C87.4377 144.953 91.7556 145.428 96.0736 145.428C115.224 145.428 132.979 136.085 143.95 120.381C154.723 104.676 157.116 84.7977 150.533 66.9067ZM140.958 118.393C130.784 133.103 114.027 141.85 95.8741 141.85C90.5089 141.85 85.1438 141.061 79.9758 139.483C79.9355 139.471 79.8962 139.455 79.8585 139.436C79.643 139.329 79.3895 139.329 79.174 139.436C79.1362 139.455 79.097 139.471 79.0567 139.483C73.8872 141.061 68.3248 141.85 63.1583 141.85C45.2046 141.85 28.2483 133.103 18.0745 118.393C7.90067 103.683 5.50683 84.7977 11.6909 68.0995L25.4555 31.3237C33.2354 10.0534 53.982 -4.0606 76.7234 -4.0606H82.309C105.05 -4.0606 125.598 10.2521 133.577 31.5225L147.342 68.2983C153.526 84.7977 151.331 103.683 140.958 118.393ZM144.349 69.0934L130.585 32.3176C123.004 12.4388 103.654 -1.07878 82.1095 -1.07878H76.5239C54.9794 -1.07878 35.6293 12.4388 28.0488 32.3176L14.2842 69.0934C8.29964 84.9964 10.494 102.689 20.2688 116.604C29.8442 130.519 45.8031 138.868 62.7594 138.868C66.9317 138.868 71.1039 138.313 75.1931 137.287C77.8984 136.608 80.735 136.608 83.4404 137.287C87.5295 138.313 91.7018 138.868 95.8741 138.868C112.83 138.868 128.789 130.519 138.365 116.604C148.139 102.689 150.334 84.9964 144.349 69.0934ZM135.771 114.815C126.595 127.736 111.833 135.489 95.8741 135.489C90.488 135.489 84.9024 134.495 79.9152 132.706C79.5267 132.577 79.1068 132.577 78.7183 132.706C73.5316 134.495 68.1455 135.489 62.7594 135.489C47 135.489 32.0385 127.736 23.0616 114.815C14.0847 101.695 12.0899 85.1952 17.476 70.2861L31.2406 33.5103C38.2226 14.8243 56.3758 2.30062 76.5239 2.30062H82.1095C102.258 2.30062 120.411 14.8243 127.393 33.5103L141.157 70.2861C146.743 85.1952 144.748 101.695 135.771 114.815ZM124.6 34.7031C118.017 17.2097 100.861 5.48123 82.1095 5.48123H76.5239C57.7722 5.48123 40.6164 17.2097 34.2329 34.7031L20.4683 71.4789C15.2817 85.394 17.2765 100.899 25.6549 113.026C34.0334 125.152 47.9974 132.308 62.7594 132.308C66.6312 132.308 70.5989 131.83 74.3967 130.809C77.6211 129.942 81.0387 129.869 84.2652 130.729C88.0543 131.738 92.0119 132.308 95.8741 132.308C110.636 132.308 124.6 125.152 132.979 112.827C141.357 100.701 143.352 85.1952 138.165 71.2801L124.6 34.7031ZM130.385 111.038C122.605 122.369 109.639 128.929 96.0736 128.929C90.6875 128.929 85.1018 127.935 80.1147 125.748C79.7262 125.619 79.3063 125.619 78.9178 125.748C73.9306 127.736 68.345 128.929 62.9589 128.929C49.1943 128.929 36.4272 122.17 28.6472 111.038C20.8673 99.7068 19.0719 85.394 23.8596 72.6716L37.6241 35.8958C43.6087 19.5952 59.3681 8.86063 76.9229 8.86063H82.5085C99.8638 8.86063 115.623 19.794 121.807 35.8958L135.572 72.6716C139.961 85.394 138.165 99.7068 130.385 111.038ZM118.416 36.8897C112.83 21.9806 98.2679 11.8424 82.1095 11.8424H76.5239C60.3655 11.8424 45.8031 21.9806 40.2174 36.8897L26.4529 73.6655C22.0642 85.5928 23.6601 98.9116 30.8416 109.249C38.0231 119.586 49.9923 125.947 62.7594 125.947C66.5235 125.947 70.2032 125.442 73.7435 124.432C77.3744 123.396 81.2591 123.396 84.89 124.432C88.4303 125.442 92.11 125.947 95.8741 125.947C108.641 125.947 120.411 119.784 127.792 109.249C134.973 98.9116 136.769 85.5928 132.181 73.6655L118.416 36.8897ZM124.999 107.261C118.416 116.803 107.444 122.369 95.8741 122.369C90.488 122.369 84.9024 121.176 80.1147 118.592C79.6122 118.341 79.0213 118.341 78.5188 118.592C73.7311 120.977 68.1455 122.369 62.7594 122.369C51.1892 122.369 40.2174 116.604 33.6344 107.261C27.0513 97.7189 25.4555 85.5928 29.6447 74.8583L43.4092 38.0825C48.5959 24.3661 61.9614 15.2218 76.5239 15.2218H82.1095C96.8715 15.2218 110.038 24.3661 115.224 38.0825L128.989 74.8583C133.178 85.7916 131.582 97.9177 124.999 107.261ZM112.431 39.2752C107.644 26.7515 95.6746 18.4025 82.1095 18.4025H76.5239C63.1584 18.4025 50.9897 26.7515 46.202 39.2752L32.4375 76.051C28.6472 85.9904 30.0436 96.9237 36.2277 105.67C42.2123 114.417 52.1866 119.586 62.7594 119.586C65.9741 119.586 69.1888 119.094 72.2667 118.146C76.818 116.745 81.8155 116.745 86.3668 118.146C89.4446 119.094 92.6594 119.586 95.8741 119.586C106.447 119.586 116.421 114.417 122.406 105.67C128.39 96.9237 129.787 85.9904 126.196 76.051L112.431 39.2752ZM119.613 103.683C114.227 111.435 105.25 116.007 95.8741 116.007C90.2885 116.007 84.9024 114.417 80.3142 111.435C79.6999 111.068 78.9336 111.068 78.3193 111.435C73.7311 114.417 68.345 116.007 62.7594 116.007C53.3835 116.007 44.4067 111.435 39.0205 103.683C33.6344 95.9298 32.4375 85.9904 35.6293 77.2437L49.3938 40.4679C53.583 29.3358 64.5548 21.7818 76.5239 21.7818H82.1095C94.0787 21.7818 105.05 29.3358 109.24 40.4679L123.004 77.2437C126.395 85.9904 125.199 95.9298 119.613 103.683ZM106.247 41.4619C102.457 31.5225 92.8818 24.7637 82.1095 24.7637H76.5239C65.7517 24.7637 56.1763 31.5225 52.3861 41.4619L38.6215 78.2377C35.6293 86.1892 36.8262 94.9358 41.6138 101.893C46.4015 108.851 54.381 113.026 62.7594 113.026C65.2443 113.026 67.6648 112.672 69.9691 112.005C75.9101 110.284 82.7234 110.284 88.6644 112.005C90.9687 112.672 93.3892 113.026 95.8741 113.026C104.253 113.026 112.232 108.851 117.02 101.893C121.807 94.9358 123.004 86.1892 120.012 78.2377L106.247 41.4619ZM114.426 99.9055C110.237 105.869 103.455 109.447 96.0736 109.447C90.2885 109.447 84.9024 107.261 80.7132 103.285C80.0514 102.626 78.981 102.626 78.3193 103.285C74.1301 107.261 68.744 109.447 62.9589 109.447C55.5779 109.447 48.7953 105.869 44.6061 99.9055C40.4169 93.9419 39.4195 86.1892 42.0128 79.4304L55.7774 42.6546C58.9691 33.9079 67.5471 28.1431 76.7234 28.1431H82.309C91.6849 28.1431 100.063 33.9079 103.255 42.6546L117.02 79.4304C119.613 86.388 118.616 93.9419 114.426 99.9055ZM100.263 43.6485C97.47 36.0946 90.089 31.1249 82.1095 31.1249H76.5239C68.5445 31.1249 61.1635 36.0946 58.3707 43.6485L44.6061 80.4243C42.4118 86.388 43.2097 92.948 46.8005 98.1165C50.3912 103.285 56.3758 106.466 62.7594 106.466C71.6791 106.466 86.9543 106.466 95.8741 106.466C102.258 106.466 108.043 103.285 111.833 98.1165C115.424 92.948 116.222 86.388 114.027 80.4243L100.263 43.6485ZM109.04 96.3274C106.048 100.701 101.26 103.086 95.8741 103.086C89.4905 103.086 83.7054 99.3092 81.1121 93.3455C80.8711 92.7451 80.2891 92.3516 79.6421 92.3516H78.9914C78.3444 92.3516 77.7624 92.7451 77.5214 93.3455C75.1275 99.3092 69.1429 103.086 62.7594 103.086C57.5727 103.086 52.5856 100.502 49.5933 96.3274C46.601 92.1528 46.0025 86.5867 47.9974 81.6171L61.762 44.8413C64.1558 38.6788 70.1404 34.5043 76.7234 34.5043H82.309C88.8921 34.5043 94.8767 38.6788 97.2705 44.8413L111.035 81.6171C112.631 86.5867 112.032 91.954 109.04 96.3274ZM94.0787 46.034C92.2833 41.0643 87.2962 37.6849 82.1095 37.6849H76.5239C71.1378 37.6849 66.3501 41.0643 64.5548 46.034L50.7902 82.8098C49.3938 86.7855 49.7928 91.1589 52.1866 94.5383C54.5805 97.9177 58.5702 100.104 62.7594 100.104C68.1455 100.104 72.9332 96.7249 74.7286 91.7552C75.2052 90.3304 76.5394 89.3698 78.0419 89.3698H80.1926C81.6951 89.3698 83.0293 90.3304 83.506 91.7552C85.3013 96.9237 90.089 100.303 95.6746 100.303C99.8638 100.303 103.854 98.3152 106.247 94.7371C108.641 91.3577 109.24 86.9843 107.644 83.0086L94.0787 46.034ZM103.654 92.5504C101.859 95.1346 99.0659 96.5262 95.8741 96.5262C91.8844 96.5262 88.2936 93.9419 86.8972 90.3637C85.9415 87.6257 83.3587 85.7916 80.4587 85.7916H78.2441C75.281 85.7916 72.6199 87.6056 71.5368 90.3637C70.1404 94.1407 66.5496 96.5262 62.7594 96.5262C59.5676 96.5262 56.7748 94.9358 54.9794 92.5504C53.184 89.9661 52.7851 86.7855 53.982 83.8037L67.7465 47.0279C69.1429 43.4497 72.7337 40.8655 76.5239 40.8655H82.1095C86.0993 40.8655 89.4905 43.251 90.8869 47.0279L104.651 83.8037C105.848 86.7855 105.449 90.1649 103.654 92.5504ZM88.0941 48.2207C87.0967 45.8352 84.7029 44.0461 82.1095 44.0461H76.5239C73.9306 44.0461 71.5368 45.6364 70.5393 48.2207L56.7748 84.9964C55.9769 86.9843 56.3758 89.171 57.5727 90.7613C58.7697 92.5504 60.7645 93.5443 62.7594 93.5443C65.3527 93.5443 67.7465 91.954 68.744 89.3698L70.5393 84.5989C70.9383 83.4061 72.1352 82.611 73.3322 82.611H85.5008C86.6977 82.611 87.8947 83.4061 88.2936 84.5989L89.8895 89.3698C90.8869 91.954 93.2808 93.5443 95.8741 93.5443C97.869 93.5443 99.8638 92.5504 101.061 90.7613C102.258 88.9722 102.457 86.7855 101.859 84.9964L88.0941 48.2207ZM98.8513 87.8724C98.6917 88.633 98.279 89.357 97.6143 89.7598C97.1685 90.0299 96.6549 90.1649 96.0736 90.1649C94.8767 90.1649 93.6797 89.3698 93.2808 88.1771L91.6849 83.4061C90.6875 80.8219 88.2936 79.2316 85.7003 79.2316H73.5316C70.9383 79.2316 68.5445 80.8219 67.5471 83.4061L65.7517 88.1771C65.3527 89.3698 64.1558 90.1649 62.9589 90.1649C61.9614 90.1649 61.1635 89.7674 60.565 88.9722C60.1748 88.4537 60.039 87.8507 60.0471 87.2183C60.0559 86.5278 60.2877 85.8643 60.5297 85.2176L73.9306 49.4134C74.3296 48.2207 75.5265 47.4255 76.7234 47.4255H82.309C83.506 47.4255 84.7029 48.2207 85.1018 49.4134L98.5027 85.2176C98.7448 85.8643 98.9768 86.532 98.938 87.2214C98.9255 87.4428 98.8958 87.6606 98.8513 87.8724Z" fill="url(#paint0_linear_522_4420)"/>
</g>
<defs>
<linearGradient id="paint0_linear_522_4420" x1="79.4476" y1="-14" x2="79.4476" y2="151.988" gradientUnits="userSpaceOnUse">
<stop stop-color="#3362D2"/>
<stop offset="1" stop-color="#3362D2" stop-opacity="0"/>
</linearGradient>
</defs>
</svg>
