<svg width="18" height="19" viewBox="0 0 18 19" fill="none" xmlns="http://www.w3.org/2000/svg">
<path d="M16.9247 8.58647C13.4037 7.84834 10.6517 5.09626 9.91366 1.57519C9.823 1.14295 9.44177 0.833313 9.00001 0.833313C8.55825 0.833313 8.17701 1.14295 8.08642 1.57524C7.34835 5.09626 4.59629 7.84828 1.07529 8.5863C0.643006 8.6769 0.333313 9.05819 0.333313 9.4999C0.333313 9.9416 0.642949 10.3229 1.07529 10.4135C4.59623 11.1516 7.34818 13.9036 8.08625 17.4247C8.17685 17.857 8.55808 18.1666 8.99984 18.1666C9.44154 18.1666 9.82283 17.857 9.91343 17.4247C10.6516 13.9036 13.4037 11.1516 16.9247 10.4137C17.357 10.3231 17.6666 9.94183 17.6666 9.50006C17.6666 9.05836 17.357 8.67707 16.9247 8.58647Z" fill="#61617C"/>
</svg>
