<svg width="18" height="19" viewBox="0 0 18 19" fill="none" xmlns="http://www.w3.org/2000/svg">
<path d="M6.62948 0.833313H1.65299C0.925275 0.833313 0.333313 1.42527 0.333313 2.15298V7.12944C0.333313 7.85714 0.925275 8.4491 1.65299 8.4491H6.62948C7.35719 8.4491 7.94915 7.85714 7.94915 7.12944V2.15298C7.94903 1.42527 7.35719 0.833313 6.62948 0.833313Z" fill="white"/>
<path d="M16.347 0.833313H11.3705C10.6428 0.833313 10.0508 1.42527 10.0508 2.15298V7.12944C10.0508 7.85714 10.6428 8.4491 11.3705 8.4491H16.347C17.0747 8.4491 17.6666 7.85714 17.6666 7.12944V2.15298C17.6666 1.42527 17.0747 0.833313 16.347 0.833313Z" fill="white"/>
<path d="M6.62948 10.5509H1.65299C0.925275 10.5509 0.333313 11.1428 0.333313 11.8705V16.8469C0.333313 17.5746 0.925275 18.1666 1.65299 18.1666H6.62948C7.35719 18.1666 7.94915 17.5746 7.94915 16.8469V11.8705C7.94903 11.1428 7.35719 10.5509 6.62948 10.5509Z" fill="white"/>
<path d="M16.347 10.5509H11.3705C10.6428 10.5509 10.0508 11.1428 10.0508 11.8705V16.847C10.0508 17.5747 10.6428 18.1666 11.3705 18.1666H16.347C17.0747 18.1666 17.6666 17.5746 17.6666 16.8469V11.8705C17.6666 11.1428 17.0747 10.5509 16.347 10.5509Z" fill="white"/>
</svg>
