<svg width="58" height="57" viewBox="0 0 58 57" fill="none" xmlns="http://www.w3.org/2000/svg">
<circle cx="29.375" cy="28.5" r="28.5" fill="url(#paint0_linear_522_4469)"/>
<path fill-rule="evenodd" clip-rule="evenodd" d="M32.5458 44.4499V32.3424C36.7509 32.0644 45.1611 30.9513 45.1611 28.7227C45.1439 27.5923 42.5968 25.3074 32.5458 25.2114V21.732H41.4582V15.693H17.3026V21.732H26.2151V25.2114C16.1641 25.3074 13.6169 27.5923 13.5997 28.7227C13.5997 30.9513 22.01 32.0644 26.2151 32.3424V44.4499H32.5458ZM26.2148 26.1371V30.074H32.5455V26.1371C36.1384 26.1982 43.3243 26.7974 43.3243 28.706C43.3243 30.3796 35.4037 31.2523 29.3801 31.2523C23.3565 31.2523 15.436 30.3796 15.436 28.706C15.436 26.7974 22.6219 26.1982 26.2148 26.1371Z" fill="white"/>
<defs>
<linearGradient id="paint0_linear_522_4469" x1="49.6856" y1="8.0994" x2="8.79698" y2="48.988" gradientUnits="userSpaceOnUse">
<stop stop-color="#2BE899"/>
<stop offset="1" stop-color="#1C9F9D"/>
</linearGradient>
</defs>
</svg>
