<svg width="243" height="38" viewBox="0 0 243 38" fill="none" xmlns="http://www.w3.org/2000/svg">
<path d="M22.888 17.549L43.441 38H27.988L12.688 22.19V38H0.0910001V0.26H12.688V13.367L27.07 0.26H42.676L22.888 17.549ZM73.6732 0.26C76.8352 0.26 79.6232 0.786999 82.0372 1.841C84.4852 2.895 86.3722 4.374 87.6982 6.278C89.0582 8.148 89.7382 10.324 89.7382 12.806V13.01C89.7382 17.09 88.3442 20.252 85.5562 22.496C82.7682 24.706 78.9602 25.811 74.1322 25.811H57.7612V38H45.1642V0.26H73.6732ZM71.4292 16.886C73.1972 16.886 74.5062 16.835 75.3562 16.733C76.2402 16.631 76.9712 16.308 77.5492 15.764C78.1272 15.22 78.4162 14.319 78.4162 13.061C78.4162 11.769 78.1272 10.834 77.5492 10.256C76.9712 9.678 76.2232 9.321 75.3052 9.185C74.3872 9.049 73.0952 8.981 71.4292 8.981H69.7462C69.0662 8.981 67.8762 8.998 66.1762 9.032C64.4762 9.032 61.6712 9.032 57.7612 9.032V16.886H71.3782H71.4292ZM135.205 38H122.506L118.987 31.523H97.6181L94.0991 38H81.4001L101.851 0.26H114.754L135.205 38ZM108.328 11.786L102.208 23.006H114.397L108.328 11.786ZM197.591 19.181C197.591 22.037 196.503 24.638 194.327 26.984C192.151 29.296 189.142 31.132 185.3 32.492C181.458 33.818 177.157 34.481 172.397 34.481H170.051V38H157.505V34.481H155.516H155.21H155.159C150.569 34.481 146.285 33.801 142.307 32.441C138.329 31.081 135.133 29.245 132.719 26.933C130.339 24.587 129.149 22.003 129.149 19.181C129.149 16.325 130.322 13.741 132.668 11.429C135.048 9.117 138.21 7.281 142.154 5.921C146.132 4.561 150.416 3.864 155.006 3.83H157.505V0.26H170.051V3.83H172.397C177.191 3.864 181.492 4.544 185.3 5.87C189.142 7.196 192.151 9.032 194.327 11.378C196.503 13.69 197.591 16.291 197.591 19.181ZM157.505 25.76V12.551H155.618C152.286 12.551 149.311 13.078 146.693 14.132C144.075 15.152 142.766 16.835 142.766 19.181C142.766 21.493 144.075 23.176 146.693 24.23C149.345 25.25 152.32 25.76 155.618 25.76H157.505ZM172.244 25.76C175.576 25.76 178.415 25.25 180.761 24.23C183.107 23.21 184.28 21.527 184.28 19.181C184.28 16.801 183.09 15.101 180.71 14.081C178.364 13.061 175.542 12.551 172.244 12.551H170.051V25.76H172.244ZM198.296 10.46V0.26H242.87L198.296 10.46ZM242.87 0.26V10.511H226.958V38H214.412V10.511H198.296V0.26H242.87Z" fill="white"/>
</svg>
